<svg xmlns="http://www.w3.org/2000/svg" width="89.897" height="89.327" viewBox="0 0 89.897 89.327">
    <g>
        <g>
            <path fill="#ffb333" d="M81.544 22.865v-7.146a3.573 3.573 0 0 0-3.573-3.573h-46.45c-2.626 0-4.43-7.146-7.146-7.146H4.723A3.573 3.573 0 0 0 1.15 8.573v66.1a3.573 3.573 0 0 0 3.573 3.573H74.4a3.573 3.573 0 0 0 3.573-3.573" transform="translate(0 0) translate(0 0) translate(0.939 3.933)"/>
            <path d="M75.3 81.207H5.628A5.628 5.628 0 0 1 0 75.58V9.478A5.628 5.628 0 0 1 5.628 3.85H25.28c2.5 0 4.02 2.43 5.36 4.574A11.827 11.827 0 0 0 32.533 11h46.343a5.628 5.628 0 0 1 5.624 5.624v7.146a2.055 2.055 0 1 1-4.109 0v-7.146a1.519 1.519 0 0 0-1.519-1.519H32.426c-2.43 0-3.93-2.394-5.252-4.5a10.5 10.5 0 0 0-2.037-2.662H5.628a1.519 1.519 0 0 0-1.519 1.535v66.1A1.519 1.519 0 0 0 5.628 77.1H75.3a1.519 1.519 0 0 0 1.519-1.519 2.055 2.055 0 0 1 4.109 0 5.628 5.628 0 0 1-5.628 5.626z" transform="translate(0 0) translate(0 0) translate(0.034 3.028)"/>
            <path fill="#fbc93b" d="M1.15 66.81l8.933-48.237A3.573 3.573 0 0 1 13.656 15h69.675a3.573 3.573 0 0 1 3.569 3.573L77.971 66.81" transform="translate(0 0) translate(0 0) translate(0.939 11.798)"/>
            <path d="M78.891 69.745h-.375a2.037 2.037 0 0 1-1.679-2.43l8.933-48a1.536 1.536 0 0 0-1.519-1.376H14.575a1.519 1.519 0 0 0-1.519 1.519v.375L4.124 68.066a2.088 2.088 0 1 1-4.109-.75L8.948 19.24a5.628 5.628 0 0 1 5.628-5.36h69.675a5.628 5.628 0 0 1 5.628 5.574v.375l-8.934 48.237a2.055 2.055 0 0 1-2.055 1.679z" transform="translate(0 0) translate(0 0) translate(0.019 10.917)"/>
            <path d="M34.681 30.3H42.4a.732.732 0 0 0 .7-.572l.607-3.144a.715.715 0 0 1 .7-.572h3.019a.715.715 0 0 1 .7.858L45.4 40.8a.715.715 0 0 1-.7.59H28.071a.715.715 0 0 1-.715-.858l2.716-13.953a.715.715 0 0 1 .7-.572h3a.715.715 0 0 1 .715.858l-.5 2.573a.715.715 0 0 0 .7.858zm6.7 3.787h-7.718a.715.715 0 0 0-.7.59l-.411 2.037a.75.75 0 0 0 .715.858h7.754a.75.75 0 0 0 .715-.59l.339-2.055a.715.715 0 0 0-.7-.84z" transform="translate(0 0) translate(0 0) translate(7.213 20.458)"/>
            <path fill="none" d="M0 0H89.327V89.327H0z" transform="translate(0 0) translate(0 0) translate(0.302)"/>
        </g>
    </g>
</svg>
