<svg xmlns="http://www.w3.org/2000/svg" width="24" height="24" viewBox="0 0 24 24">
    <path fill="none" d="M0 0h24v24H0z"/>
    <path fill="#fbc93b" d="M15.867 3a5.787 5.787 0 0 0-4.3 1.949A5.787 5.787 0 0 0 7.26 3 5.146 5.146 0 0 0 2 8.13c0 3.526 3.251 6.4 8.177 10.764l1.387 1.222 1.387-1.231c4.925-4.356 8.177-7.229 8.177-10.755A5.146 5.146 0 0 0 15.867 3zm-4.208 14.5l-.1.093-.1-.093c-4.552-4.02-7.555-6.679-7.555-9.374a3.229 3.229 0 0 1 3.356-3.26 3.742 3.742 0 0 1 3.414 2.2h1.788a3.717 3.717 0 0 1 3.4-2.2 3.229 3.229 0 0 1 3.352 3.264c0 2.696-3.003 5.354-7.555 9.37z" transform="translate(0.437 0.655)"/>
</svg>
